<svg width="187" height="187" viewBox="0 0 187 187" fill="none" xmlns="http://www.w3.org/2000/svg">
<circle cx="93.1814" cy="93.1814" r="93.1814" fill="#F2F0EE"/>
<path d="M139.862 66.1402L139.862 93.2568C114.365 93.2568 93.6229 72.5131 93.6229 47.0182L120.738 47.0182C120.738 57.5615 129.316 66.1402 139.862 66.1402Z" fill="black"/>
<path d="M93.6229 141.321C93.6229 115.826 114.367 95.082 139.862 95.082L139.862 122.199C129.318 122.199 120.74 130.777 120.74 141.321L93.6229 141.321Z" fill="black"/>
<path d="M46.1638 47.0179L73.9941 47.0179C73.9941 57.5636 82.7986 66.1417 93.6193 66.1417L93.6193 93.2566C67.4535 93.2566 46.1638 72.5142 46.1638 47.0179Z" fill="black"/>
<path d="M93.6192 95.0825L93.6192 122.197C82.7959 122.197 73.9921 130.775 73.9921 141.321L46.1637 141.321C46.1637 115.825 67.4519 95.0825 93.6192 95.0825Z" fill="black"/>
</svg>
