<svg width="187" height="187" viewBox="0 0 187 187" fill="none" xmlns="http://www.w3.org/2000/svg">
<circle cx="93.1814" cy="93.1814" r="93.1814" fill="#9596FF"/>
<path d="M139.861 66.1402L139.861 93.2568C114.365 93.2568 93.6225 72.5131 93.6225 47.0182L120.737 47.0182C120.737 57.5615 129.315 66.1402 139.861 66.1402Z" fill="black"/>
<path d="M93.6224 141.321C93.6224 115.826 114.366 95.082 139.861 95.082L139.861 122.199C129.318 122.199 120.739 130.777 120.739 141.321L93.6224 141.321Z" fill="black"/>
<path d="M46.1634 47.0179L73.9937 47.0179C73.9937 57.5636 82.7981 66.1417 93.6189 66.1417L93.6188 93.2566C67.453 93.2566 46.1634 72.5142 46.1634 47.0179Z" fill="black"/>
<path d="M93.6189 95.0825L93.6189 122.197C82.7956 122.197 73.9918 130.775 73.9918 141.321L46.1634 141.321C46.1634 115.825 67.4516 95.0825 93.6189 95.0825Z" fill="black"/>
</svg>
