<svg width="187" height="187" viewBox="0 0 187 187" fill="none" xmlns="http://www.w3.org/2000/svg">
<circle cx="93.1814" cy="93.1814" r="93.1814" fill="black"/>
<path d="M139.861 66.1402L139.861 93.2569C114.365 93.2568 93.6224 72.5131 93.6224 47.0182L120.737 47.0182C120.737 57.5615 129.315 66.1402 139.861 66.1402Z" fill="white"/>
<path d="M93.6224 141.321C93.6224 115.826 114.366 95.082 139.861 95.082L139.861 122.199C129.318 122.199 120.739 130.777 120.739 141.321L93.6224 141.321Z" fill="white"/>
<path d="M46.1632 47.0179L73.9935 47.0179C73.9935 57.5636 82.798 66.1417 93.6187 66.1417L93.6187 93.2566C67.4529 93.2566 46.1632 72.5142 46.1632 47.0179Z" fill="white"/>
<path d="M93.6187 95.0826L93.6187 122.197C82.7954 122.197 73.9916 130.775 73.9916 141.321L46.1632 141.321C46.1632 115.825 67.4514 95.0825 93.6187 95.0826Z" fill="white"/>
</svg>
