<svg width="263" height="265" viewBox="0 0 263 265" fill="none" xmlns="http://www.w3.org/2000/svg">
<path d="M263 54.0242L263 130.121C191.451 130.121 133.242 71.9083 133.242 0.362933L209.334 0.36294C209.334 29.9501 233.406 54.0242 263 54.0242Z" fill="black"/>
<path d="M133.242 265C133.242 193.455 191.455 135.242 263 135.242L263 211.339C233.413 211.339 209.339 235.413 209.339 265L133.242 265Z" fill="black"/>
<path d="M0.0705261 0.362701L78.1696 0.362715C78.1696 29.9567 102.877 54.0292 133.243 54.0292L133.243 130.12C59.8148 130.12 0.0705133 71.912 0.0705261 0.362701Z" fill="black"/>
<path d="M133.243 135.242L133.243 211.333C102.87 211.333 78.1642 235.406 78.1642 265L0.0705025 265C0.0705155 193.451 59.8108 135.242 133.243 135.242Z" fill="black"/>
</svg>
