<svg width="263" height="265" viewBox="0 0 263 265" fill="none" xmlns="http://www.w3.org/2000/svg">
<path d="M263 53.6615L263 129.758C191.451 129.758 133.242 71.5456 133.242 0.000246748L209.334 0.000253401C209.334 29.5874 233.406 53.6615 263 53.6615Z" fill="white"/>
<path d="M133.242 264.637C133.242 193.092 191.455 134.88 263 134.88L263 210.976C233.413 210.976 209.339 235.05 209.339 264.637L133.242 264.637Z" fill="white"/>
<path d="M0.0705261 3.05176e-05L78.1696 4.38227e-05C78.1696 29.5941 102.877 53.6665 133.243 53.6665L133.243 129.758C59.8148 129.758 0.0705133 71.5494 0.0705261 3.05176e-05Z" fill="white"/>
<path d="M133.243 134.88L133.243 210.971C102.87 210.971 78.1642 235.043 78.1642 264.637L0.0705025 264.637C0.0705155 193.088 59.8108 134.88 133.243 134.88Z" fill="white"/>
</svg>
