<svg width="1153" height="204" viewBox="0 0 1153 204" fill="none" xmlns="http://www.w3.org/2000/svg">
<path d="M160.739 74.5551L160.739 121.076C116.998 121.076 81.4129 85.4883 81.4129 41.75L127.93 41.75C127.93 59.8377 142.647 74.5551 160.739 74.5551Z" fill="black"/>
<path d="M81.4129 203.532C81.4129 159.794 117 124.207 160.739 124.207L160.739 170.727C142.651 170.727 127.933 185.445 127.933 203.532L81.4129 203.532Z" fill="black"/>
<path d="M-0.000244141 41.75L47.7445 41.75C47.7445 59.8419 62.8492 74.5583 81.4129 74.5583L81.4129 121.076C36.5236 121.076 -0.00025199 85.4907 -0.000244141 41.75Z" fill="black"/>
<path d="M81.4129 124.207L81.4129 170.724C62.8449 170.724 47.7413 185.441 47.7413 203.532L-0.000258603 203.532C-0.000250628 159.792 36.5211 124.207 81.4129 124.207Z" fill="black"/>
<path d="M257.571 41.7932C245.663 42.3109 236.861 42.3109 223.917 41.7932C224.176 50.8537 224.176 61.7264 224.176 73.6346C213.821 73.3757 205.796 73.1168 201.913 72.8579C202.69 82.4362 202.949 93.8266 202.431 103.405C206.055 103.146 213.821 102.887 223.658 102.887C223.4 121.785 223.141 140.424 223.141 153.367C223.141 186.762 237.12 203.589 273.88 203.589C289.412 203.589 302.615 200.741 315.817 190.904C310.899 183.656 304.427 172.006 300.285 163.722C293.295 168.641 287.082 172.524 276.727 172.524C261.972 172.524 254.723 165.017 254.723 146.896C254.723 138.871 254.723 121.526 255.241 102.628C278.281 102.628 301.838 102.887 310.122 103.405C309.604 94.0855 309.086 82.6951 309.604 72.8579C301.579 73.3757 278.798 73.6346 255.759 73.6346C256.276 60.1732 256.794 48.5239 257.571 41.7932ZM381.102 179.514C365.051 179.514 356.509 174.077 356.509 162.169C356.509 152.591 363.239 144.566 384.726 144.566C393.269 144.566 403.365 144.825 413.461 145.86C413.461 168.382 401.294 179.514 381.102 179.514ZM450.221 201C447.891 181.585 448.15 136.023 448.15 122.044C448.15 88.3903 426.922 70.0103 389.644 70.0103C352.626 70.0103 334.763 88.1314 329.586 112.983C340.459 114.019 351.331 115.572 362.463 118.42C364.793 104.958 372.559 96.1565 388.35 96.1565C406.73 96.1565 413.72 106.511 413.72 122.303C413.72 124.633 413.72 127.998 413.461 131.881C402.329 130.587 390.162 129.81 379.031 129.81C339.682 129.81 324.15 144.307 324.15 166.829C324.15 187.021 337.352 203.589 369.452 203.589C386.797 203.589 404.141 195.564 413.202 176.148H413.978C414.237 182.102 414.755 189.092 415.532 201H450.221ZM597.847 201C596.553 167.347 597.847 142.495 597.847 122.303C597.847 89.1669 583.868 70.0103 553.58 70.0103C533.129 70.0103 514.749 81.4007 506.465 109.1H504.912C504.653 92.5323 505.17 80.6241 504.912 72.8579H471.776C473.588 113.76 472.811 174.595 471.517 201C482.907 200.223 496.11 200.482 506.983 201C505.947 176.148 506.465 154.662 506.465 140.165C506.983 115.572 522.256 98.7452 540.895 98.7452C555.651 98.7452 563.935 106.77 563.935 127.48C563.935 141.977 563.417 178.219 562.64 201C575.066 200.482 586.974 200.482 597.847 201ZM714.702 127.221C714.702 156.733 699.946 175.372 676.906 175.372C653.09 175.372 645.324 158.545 645.324 137.576C645.324 111.171 654.643 96.6742 678.46 96.6742C700.981 96.6742 714.702 105.735 714.702 127.221ZM749.132 201C746.802 156.992 746.802 97.4509 749.391 22.8955C736.447 23.931 727.645 23.6721 714.184 23.1544C714.443 36.098 714.702 69.7515 714.961 93.05L713.666 93.3089C705.382 79.5886 690.368 70.787 667.846 70.787C633.416 70.787 612.965 92.5323 612.965 137.835C612.965 178.219 629.015 203.848 664.739 203.848C690.368 203.848 705.9 188.574 714.443 164.758H715.737C715.478 182.879 715.219 196.599 714.961 201H749.132ZM833.326 94.3444C853.518 94.3444 865.426 106.77 865.168 127.998C842.128 128.774 815.205 128.774 797.343 128.774C799.673 105.476 812.099 94.3444 833.326 94.3444ZM896.232 173.559C890.537 170.453 877.335 161.91 872.675 158.286C867.238 168.123 857.66 177.96 835.915 177.96C812.616 177.96 799.673 167.088 797.343 145.601C824.266 145.083 868.015 145.342 896.232 145.601C897.009 140.165 897.527 133.693 897.527 129.292C897.527 88.6492 871.639 70.0103 833.326 70.0103C786.729 70.0103 764.466 97.7097 764.466 137.576C764.466 176.925 785.435 203.848 835.656 203.848C867.238 203.848 886.136 190.904 896.232 173.559ZM1132.6 201C1131.05 167.347 1132.34 142.495 1132.34 122.303C1132.34 89.1669 1118.37 70.0103 1088.08 70.0103C1067.89 70.0103 1049.51 81.1419 1041.22 109.1H1039.41C1036.04 86.0605 1023.1 70.0103 997.213 70.0103C977.021 70.0103 958.641 81.1419 950.357 109.1H948.545C948.286 92.5323 948.804 80.6241 948.545 72.8579H915.409C917.221 113.76 916.445 174.336 915.15 201C926.541 200.223 939.743 200.482 950.616 201C949.58 176.148 950.098 154.662 950.098 140.165C950.616 115.572 965.889 98.7452 984.528 98.7452C999.284 98.7452 1007.57 106.77 1007.57 127.48C1007.57 141.977 1007.05 178.219 1006.53 201C1018.7 200.482 1030.61 200.482 1041.22 201C1040.96 178.737 1040.96 159.321 1041.22 140.165C1041.48 115.572 1057.01 98.7452 1075.39 98.7452C1090.41 98.7452 1098.69 106.77 1098.69 127.48C1098.69 141.977 1098.17 178.219 1097.4 201C1109.56 200.482 1121.73 200.482 1132.6 201Z" fill="black"/>
</svg>
