<svg width="1153" height="205" viewBox="0 0 1153 205" fill="none" xmlns="http://www.w3.org/2000/svg">
<path d="M160.739 75.1923L160.739 121.713C116.998 121.713 81.4129 86.1255 81.4129 42.3873L127.93 42.3873C127.93 60.475 142.647 75.1923 160.739 75.1923Z" fill="white"/>
<path d="M81.4129 204.169C81.4129 160.431 117 124.844 160.739 124.844L160.739 171.364C142.651 171.364 127.933 186.082 127.933 204.169L81.4129 204.169Z" fill="white"/>
<path d="M-0.000244141 42.3873L47.7445 42.3873C47.7445 60.4792 62.8492 75.1956 81.4129 75.1956L81.4129 121.713C36.5236 121.713 -0.00025199 86.128 -0.000244141 42.3873Z" fill="white"/>
<path d="M81.4129 124.844L81.4129 171.362C62.8449 171.362 47.7413 186.078 47.7413 204.17L-0.000258603 204.17C-0.000250628 160.429 36.5211 124.844 81.4129 124.844Z" fill="white"/>
<path d="M257.571 42.4305C245.663 42.9482 236.861 42.9482 223.917 42.4305C224.176 51.491 224.176 62.3637 224.176 74.2719C213.821 74.013 205.796 73.7541 201.913 73.4952C202.69 83.0735 202.949 94.4639 202.431 104.042C206.055 103.783 213.821 103.524 223.658 103.524C223.4 122.422 223.141 141.061 223.141 154.005C223.141 187.399 237.12 204.226 273.88 204.226C289.412 204.226 302.615 201.378 315.817 191.541C310.899 184.293 304.427 172.644 300.285 164.36C293.295 169.278 287.082 173.161 276.727 173.161C261.972 173.161 254.723 165.654 254.723 147.533C254.723 139.508 254.723 122.163 255.241 103.266C278.281 103.266 301.838 103.524 310.122 104.042C309.604 94.7228 309.086 83.3324 309.604 73.4952C301.579 74.013 278.798 74.2719 255.759 74.2719C256.276 60.8105 256.794 49.1612 257.571 42.4305ZM381.102 180.151C365.051 180.151 356.509 174.715 356.509 162.806C356.509 153.228 363.239 145.203 384.726 145.203C393.269 145.203 403.365 145.462 413.461 146.497C413.461 169.019 401.294 180.151 381.102 180.151ZM450.221 201.637C447.891 182.222 448.15 136.66 448.15 122.681C448.15 89.0276 426.922 70.6476 389.644 70.6476C352.626 70.6476 334.763 88.7687 329.586 113.621C340.459 114.656 351.331 116.209 362.463 119.057C364.793 105.595 372.559 96.7938 388.35 96.7938C406.73 96.7938 413.72 107.149 413.72 122.94C413.72 125.27 413.72 128.635 413.461 132.518C402.329 131.224 390.162 130.447 379.031 130.447C339.682 130.447 324.15 144.944 324.15 167.466C324.15 187.658 337.352 204.226 369.452 204.226C386.797 204.226 404.141 196.201 413.202 176.786H413.978C414.237 182.74 414.755 189.729 415.532 201.637H450.221ZM597.847 201.637C596.553 167.984 597.847 143.132 597.847 122.94C597.847 89.8042 583.868 70.6476 553.58 70.6476C533.129 70.6476 514.749 82.038 506.465 109.737H504.912C504.653 93.1696 505.17 81.2614 504.912 73.4952H471.776C473.588 114.397 472.811 175.232 471.517 201.637C482.907 200.861 496.11 201.12 506.983 201.637C505.947 176.786 506.465 155.299 506.465 140.802C506.983 116.209 522.256 99.3825 540.895 99.3825C555.651 99.3825 563.935 107.408 563.935 128.117C563.935 142.614 563.417 178.856 562.64 201.637C575.066 201.12 586.974 201.12 597.847 201.637ZM714.702 127.859C714.702 157.37 699.946 176.009 676.906 176.009C653.09 176.009 645.324 159.182 645.324 138.213C645.324 111.808 654.643 97.3115 678.46 97.3115C700.981 97.3115 714.702 106.372 714.702 127.859ZM749.132 201.637C746.802 157.629 746.802 98.0882 749.391 23.5328C736.447 24.5683 727.645 24.3094 714.184 23.7917C714.443 36.7353 714.702 70.3888 714.961 93.6873L713.666 93.9462C705.382 80.2259 690.368 71.4243 667.846 71.4243C633.416 71.4243 612.965 93.1696 612.965 138.472C612.965 178.856 629.015 204.485 664.739 204.485C690.368 204.485 705.9 189.211 714.443 165.395H715.737C715.478 183.516 715.219 197.236 714.961 201.637H749.132ZM833.326 94.9817C853.518 94.9817 865.426 107.408 865.168 128.635C842.128 129.412 815.205 129.412 797.343 129.412C799.673 106.113 812.099 94.9817 833.326 94.9817ZM896.232 174.197C890.537 171.09 877.335 162.547 872.675 158.923C867.238 168.76 857.66 178.598 835.915 178.598C812.616 178.598 799.673 167.725 797.343 146.239C824.266 145.721 868.015 145.98 896.232 146.239C897.009 140.802 897.527 134.33 897.527 129.93C897.527 89.2865 871.639 70.6476 833.326 70.6476C786.729 70.6476 764.466 98.347 764.466 138.213C764.466 177.562 785.435 204.485 835.656 204.485C867.238 204.485 886.136 191.541 896.232 174.197ZM1132.6 201.637C1131.05 167.984 1132.34 143.132 1132.34 122.94C1132.34 89.8042 1118.37 70.6476 1088.08 70.6476C1067.89 70.6476 1049.51 81.7792 1041.22 109.737H1039.41C1036.04 86.6978 1023.1 70.6476 997.213 70.6476C977.021 70.6476 958.641 81.7792 950.357 109.737H948.545C948.286 93.1696 948.804 81.2614 948.545 73.4952H915.409C917.221 114.397 916.445 174.973 915.15 201.637C926.541 200.861 939.743 201.12 950.616 201.637C949.58 176.786 950.098 155.299 950.098 140.802C950.616 116.209 965.889 99.3825 984.528 99.3825C999.284 99.3825 1007.57 107.408 1007.57 128.117C1007.57 142.614 1007.05 178.856 1006.53 201.637C1018.7 201.12 1030.61 201.12 1041.22 201.637C1040.96 179.374 1040.96 159.959 1041.22 140.802C1041.48 116.209 1057.01 99.3825 1075.39 99.3825C1090.41 99.3825 1098.69 107.408 1098.69 128.117C1098.69 142.614 1098.17 178.856 1097.4 201.637C1109.56 201.12 1121.73 201.12 1132.6 201.637Z" fill="white"/>
</svg>
