<svg width="628" height="265" viewBox="0 0 628 265" fill="none" xmlns="http://www.w3.org/2000/svg">
<path d="M40.8773 158.324C33.075 158.663 27.308 158.663 18.8273 158.324C18.9969 164.261 18.9969 171.384 18.9969 179.187C12.2123 179.017 6.95422 178.847 4.40999 178.678C4.91884 184.954 5.08845 192.417 4.74922 198.692C7.12384 198.523 12.2123 198.353 18.6577 198.353C18.4881 210.735 18.3184 222.947 18.3184 231.428C18.3184 253.308 27.4777 264.333 51.563 264.333C61.7399 264.333 70.3903 262.468 79.0407 256.022C75.818 251.273 71.5776 243.64 68.8638 238.213C64.2841 241.435 60.2134 243.98 53.4288 243.98C43.7607 243.98 39.0115 239.061 39.0115 227.188C39.0115 221.93 39.0115 210.565 39.3507 198.184C54.4465 198.184 69.8814 198.353 75.3091 198.692C74.9699 192.586 74.6307 185.123 74.9699 178.678C69.7118 179.017 54.7857 179.187 39.6899 179.187C40.0292 170.367 40.3684 162.734 40.8773 158.324ZM121.815 248.559C111.299 248.559 105.702 244.997 105.702 237.195C105.702 230.919 110.112 225.661 124.19 225.661C129.787 225.661 136.402 225.831 143.017 226.509C143.017 241.266 135.045 248.559 121.815 248.559ZM167.103 262.637C165.576 249.916 165.746 220.064 165.746 210.905C165.746 188.855 151.837 176.812 127.413 176.812C103.158 176.812 91.4544 188.685 88.0621 204.968C95.1859 205.647 102.31 206.664 109.603 208.53C111.13 199.71 116.218 193.943 126.565 193.943C138.607 193.943 143.187 200.728 143.187 211.074C143.187 212.601 143.187 214.806 143.017 217.35C135.724 216.502 127.752 215.993 120.459 215.993C94.6771 215.993 84.5001 225.492 84.5001 240.248C84.5001 253.478 93.1505 264.333 114.183 264.333C125.547 264.333 136.911 259.075 142.848 246.354H143.357C143.526 250.255 143.865 254.835 144.374 262.637H167.103ZM263.828 262.637C262.98 240.587 263.828 224.304 263.828 211.074C263.828 189.364 254.669 176.812 234.824 176.812C221.425 176.812 209.382 184.275 203.954 202.424H202.937C202.767 191.569 203.106 183.766 202.937 178.678H181.226C182.413 205.477 181.904 245.337 181.056 262.637C188.519 262.128 197.17 262.298 204.293 262.637C203.615 246.354 203.954 232.276 203.954 222.778C204.293 206.664 214.301 195.639 226.513 195.639C236.181 195.639 241.609 200.897 241.609 214.467C241.609 223.965 241.27 247.711 240.761 262.637C248.902 262.298 256.705 262.298 263.828 262.637ZM340.392 214.297C340.392 233.633 330.724 245.845 315.629 245.845C300.024 245.845 294.936 234.82 294.936 221.082C294.936 203.781 301.042 194.282 316.646 194.282C331.403 194.282 340.392 200.219 340.392 214.297ZM362.951 262.637C361.425 233.803 361.425 194.791 363.121 145.942C354.64 146.621 348.873 146.451 340.053 146.112C340.223 154.592 340.392 176.642 340.562 191.908L339.714 192.077C334.286 183.088 324.449 177.321 309.692 177.321C287.133 177.321 273.734 191.569 273.734 221.251C273.734 247.711 284.25 264.503 307.657 264.503C324.449 264.503 334.625 254.496 340.223 238.891H341.071C340.901 250.764 340.732 259.754 340.562 262.637H362.951ZM418.116 192.756C431.346 192.756 439.148 200.897 438.979 214.806C423.883 215.315 406.243 215.315 394.539 215.315C396.066 200.049 404.207 192.756 418.116 192.756ZM459.332 244.658C455.601 242.623 446.95 237.025 443.897 234.651C440.335 241.096 434.06 247.542 419.812 247.542C404.547 247.542 396.066 240.418 394.539 226.34C412.179 226 440.844 226.17 459.332 226.34C459.841 222.778 460.18 218.537 460.18 215.654C460.18 189.024 443.219 176.812 418.116 176.812C387.585 176.812 372.998 194.961 372.998 221.082C372.998 246.863 386.737 264.503 419.642 264.503C440.335 264.503 452.717 256.022 459.332 244.658ZM614.204 262.637C613.187 240.587 614.035 224.304 614.035 211.074C614.035 189.364 604.875 176.812 585.03 176.812C571.8 176.812 559.758 184.106 554.33 202.424H553.143C550.938 187.328 542.457 176.812 525.496 176.812C512.266 176.812 500.223 184.106 494.795 202.424H493.608C493.438 191.569 493.778 183.766 493.608 178.678H471.897C473.084 205.477 472.576 245.167 471.728 262.637C479.191 262.128 487.841 262.298 494.965 262.637C494.286 246.354 494.626 232.276 494.626 222.778C494.965 206.664 504.972 195.639 517.184 195.639C526.852 195.639 532.28 200.897 532.28 214.467C532.28 223.965 531.941 247.711 531.602 262.637C539.574 262.298 547.376 262.298 554.33 262.637C554.16 248.05 554.16 235.329 554.33 222.778C554.5 206.664 564.677 195.639 576.719 195.639C586.557 195.639 591.985 200.897 591.985 214.467C591.985 223.965 591.645 247.711 591.137 262.637C599.109 262.298 607.08 262.298 614.204 262.637Z" fill="white"/>
<path d="M366 22.1319L366 52.6125C337.341 52.6125 314.025 29.2954 314.025 0.63786L344.504 0.637862C344.504 12.489 354.146 22.1319 366 22.1319Z" fill="white"/>
<path d="M314.025 106.637C314.025 77.9797 337.342 54.6626 366 54.6626L366 85.1432C354.149 85.1432 344.506 94.7861 344.506 106.637L314.025 106.637Z" fill="white"/>
<path d="M260.683 0.637512L291.966 0.637518C291.966 12.4914 301.862 22.1337 314.025 22.1337L314.025 52.6121C284.614 52.6121 260.683 29.2967 260.683 0.637512Z" fill="white"/>
<path d="M314.026 54.6638L314.025 85.1422C301.86 85.1422 291.964 94.7845 291.964 106.638L260.683 106.638C260.683 77.9792 284.612 54.6638 314.026 54.6638Z" fill="white"/>
</svg>
