<svg width="628" height="264" viewBox="0 0 628 264" fill="none" xmlns="http://www.w3.org/2000/svg">
<path d="M40.8773 157.687C33.075 158.026 27.308 158.026 18.8273 157.687C18.9969 163.623 18.9969 170.747 18.9969 178.549C12.2123 178.38 6.95422 178.21 4.40999 178.04C4.91884 184.316 5.08845 191.779 4.74922 198.055C7.12384 197.885 12.2123 197.716 18.6577 197.716C18.4881 210.098 18.3184 222.31 18.3184 230.791C18.3184 252.671 27.4777 263.696 51.563 263.696C61.7399 263.696 70.3903 261.83 79.0407 255.385C75.818 250.636 71.5776 243.003 68.8638 237.575C64.2841 240.798 60.2134 243.342 53.4288 243.342C43.7607 243.342 39.0115 238.423 39.0115 226.55C39.0115 221.292 39.0115 209.928 39.3507 197.546C54.4465 197.546 69.8814 197.716 75.3091 198.055C74.9699 191.949 74.6307 184.486 74.9699 178.04C69.7118 178.38 54.7857 178.549 39.6899 178.549C40.0292 169.729 40.3684 162.097 40.8773 157.687ZM121.815 247.922C111.299 247.922 105.702 244.36 105.702 236.558C105.702 230.282 110.112 225.024 124.19 225.024C129.787 225.024 136.402 225.194 143.017 225.872C143.017 240.628 135.045 247.922 121.815 247.922ZM167.103 262C165.576 249.279 165.746 219.427 165.746 210.267C165.746 188.217 151.837 176.175 127.413 176.175C103.158 176.175 91.4544 188.048 88.0621 204.331C95.1859 205.009 102.31 206.027 109.603 207.893C111.13 199.073 116.218 193.306 126.565 193.306C138.607 193.306 143.187 200.09 143.187 210.437C143.187 211.964 143.187 214.169 143.017 216.713C135.724 215.865 127.752 215.356 120.459 215.356C94.6771 215.356 84.5001 224.854 84.5001 239.611C84.5001 252.841 93.1505 263.696 114.183 263.696C125.547 263.696 136.911 258.438 142.848 245.717H143.357C143.526 249.618 143.865 254.198 144.374 262H167.103ZM263.828 262C262.98 239.95 263.828 223.667 263.828 210.437C263.828 188.726 254.669 176.175 234.824 176.175C221.425 176.175 209.382 183.638 203.954 201.787H202.937C202.767 190.931 203.106 183.129 202.937 178.04H181.226C182.413 204.84 181.904 244.699 181.056 262C188.519 261.491 197.17 261.661 204.293 262C203.615 245.717 203.954 231.639 203.954 222.14C204.293 206.027 214.301 195.002 226.513 195.002C236.181 195.002 241.609 200.26 241.609 213.829C241.609 223.328 241.27 247.074 240.761 262C248.902 261.661 256.705 261.661 263.828 262ZM340.392 213.66C340.392 232.996 330.724 245.208 315.629 245.208C300.024 245.208 294.936 234.183 294.936 220.444C294.936 203.144 301.042 193.645 316.646 193.645C331.403 193.645 340.392 199.582 340.392 213.66ZM362.951 262C361.425 233.165 361.425 194.154 363.121 145.305C354.64 145.983 348.873 145.814 340.053 145.474C340.223 153.955 340.392 176.005 340.562 191.27L339.714 191.44C334.286 182.45 324.449 176.684 309.692 176.684C287.133 176.684 273.734 190.931 273.734 220.614C273.734 247.074 284.25 263.866 307.657 263.866C324.449 263.866 334.625 253.858 340.223 238.254H341.071C340.901 250.127 340.732 259.117 340.562 262H362.951ZM418.116 192.119C431.346 192.119 439.148 200.26 438.979 214.169C423.883 214.677 406.243 214.677 394.539 214.677C396.066 199.412 404.207 192.119 418.116 192.119ZM459.332 244.021C455.601 241.985 446.95 236.388 443.897 234.014C440.335 240.459 434.06 246.904 419.812 246.904C404.547 246.904 396.066 239.78 394.539 225.702C412.179 225.363 440.844 225.533 459.332 225.702C459.841 222.14 460.18 217.9 460.18 215.017C460.18 188.387 443.219 176.175 418.116 176.175C387.585 176.175 372.998 194.324 372.998 220.444C372.998 246.226 386.737 263.866 419.642 263.866C440.335 263.866 452.717 255.385 459.332 244.021ZM614.204 262C613.187 239.95 614.035 223.667 614.035 210.437C614.035 188.726 604.875 176.175 585.03 176.175C571.8 176.175 559.758 183.468 554.33 201.787H553.143C550.938 186.691 542.457 176.175 525.496 176.175C512.266 176.175 500.223 183.468 494.795 201.787H493.608C493.438 190.931 493.778 183.129 493.608 178.04H471.897C473.084 204.84 472.576 244.53 471.728 262C479.191 261.491 487.841 261.661 494.965 262C494.286 245.717 494.626 231.639 494.626 222.14C494.965 206.027 504.972 195.002 517.184 195.002C526.852 195.002 532.28 200.26 532.28 213.829C532.28 223.328 531.941 247.074 531.602 262C539.574 261.661 547.376 261.661 554.33 262C554.16 247.413 554.16 234.692 554.33 222.14C554.5 206.027 564.677 195.002 576.719 195.002C586.557 195.002 591.985 200.26 591.985 213.829C591.985 223.328 591.645 247.074 591.137 262C599.109 261.661 607.08 261.661 614.204 262Z" fill="black"/>
<path d="M366 21.4946L366 51.9752C337.341 51.9752 314.025 28.6581 314.025 0.000561192L344.504 0.000563857C344.504 11.8517 354.146 21.4946 366 21.4946Z" fill="black"/>
<path d="M314.025 106C314.025 77.3424 337.342 54.0253 366 54.0253L366 84.5059C354.149 84.5059 344.506 94.1488 344.506 106L314.025 106Z" fill="black"/>
<path d="M260.683 0.000213623L291.966 0.000218952C291.966 11.8541 301.862 21.4964 314.025 21.4964L314.025 51.9748C284.614 51.9748 260.683 28.6594 260.683 0.000213623Z" fill="black"/>
<path d="M314.026 54.0265L314.025 84.5049C301.86 84.5049 291.964 94.1472 291.964 106.001L260.683 106.001C260.683 77.3419 284.612 54.0265 314.026 54.0265Z" fill="black"/>
</svg>
