<svg width="498" height="243" viewBox="0 0 498 243" fill="none" xmlns="http://www.w3.org/2000/svg">
<path d="M34.4179 120.994L34.3719 120.985H34.3251H23.9532C11.014 120.985 0.514661 110.345 0.514661 97.2V24.3C0.514661 11.1553 11.014 0.514661 23.9532 0.514661H162.882C175.821 0.514661 186.32 11.1553 186.32 24.3V26.0513V26.127L186.342 26.1995C186.814 27.7709 187.059 29.3917 187.059 31.0489V96.303C187.059 102.482 190.28 108.134 195.613 112.615C200.945 117.095 208.415 120.432 217.011 122.006L217.057 122.015H217.104H349.716C362.656 122.015 373.155 132.655 373.155 145.8V218.7C373.155 231.845 362.656 242.485 349.716 242.485H210.788C197.849 242.485 187.35 231.845 187.35 218.7V145.8C187.35 145.206 187.372 144.62 187.414 144.033L187.42 143.943L187.396 143.857C185.629 137.568 180.496 132.098 173.337 128.21C166.172 124.317 156.934 121.982 146.858 121.982H45.4783C41.6399 121.982 37.933 121.638 34.4179 120.994Z" fill="#E9E9FF" stroke="black" stroke-width="1.02932"/>
<path d="M497.26 75.5499L497.26 75.5578L497.26 75.5658C497.262 75.6894 497.263 75.8132 497.263 75.9375V218.7C497.263 231.836 486.618 242.485 473.488 242.485H421.163C408.033 242.485 397.389 231.836 397.389 218.7L397.389 122.524C397.389 109.512 386.84 98.9634 373.827 98.9634H235.959C222.829 98.9634 212.184 88.3146 212.184 75.1781V24.3C212.184 11.1635 222.829 0.514661 235.959 0.514661H473.488C486.618 0.514661 497.263 11.1635 497.263 24.3V75.1781C497.263 75.3024 497.262 75.4263 497.26 75.5499Z" fill="#E9E9FF" stroke="black" stroke-width="1.02932"/>
<path d="M56.2649 60.9276H28.5774C22.7233 60.9276 17.9741 65.6703 17.9741 71.5309V99.2253C17.9741 105.079 22.7168 109.829 28.5774 109.829H56.2718C62.1259 109.829 66.8752 105.086 66.8752 99.2253V71.5309C66.8752 65.1087 72.0783 59.8982 78.5078 59.8982H106.209C112.063 59.8982 116.812 55.1555 116.812 49.2949V21.5936C116.812 15.7397 112.063 10.9902 106.209 10.9902H78.5009C72.6468 10.9902 67.8975 15.733 67.8975 21.5936V49.2949C67.8975 55.7171 62.6944 60.9276 56.2649 60.9276Z" fill="white" stroke="black" stroke-width="1.02932"/>
</svg>
