<svg width="429" height="273" viewBox="0 0 429 273" fill="none" xmlns="http://www.w3.org/2000/svg">
<path d="M211.521 0.769818C223.654 0.76982 233.489 10.6048 233.489 22.7369L233.489 72.3906C233.489 84.1658 226.952 94.9676 216.521 100.431C205.76 106.066 199.017 117.209 199.017 129.356L199.017 219.943L199.017 237.996C199.017 256.166 184.288 270.895 166.119 270.895L40.5218 270.895C18.4184 270.895 0.50015 252.976 0.500149 230.873L0.500139 40.7915C0.500138 18.6881 18.4185 0.769787 40.5218 0.769791L211.521 0.769818Z" fill="#FFF1DB" stroke="black"/>
<rect x="22.7686" y="131.165" width="156.082" height="122.131" rx="24.6738" fill="#FFDFB4" stroke="black"/>
<rect x="222.846" y="111.068" width="205.041" height="160.626" rx="24.6738" fill="#FFDFB4" stroke="black"/>
<path d="M53.1903 53.3492C53.1903 62.3392 51.5394 70.4539 48.8913 76.3023C46.2224 82.1966 42.638 85.6015 38.8605 85.6015C35.0831 85.6015 31.4986 82.1966 28.8298 76.3023C26.1817 70.4538 24.5308 62.3392 24.5308 53.3492C24.5308 44.3592 26.1817 36.2446 28.8298 30.3961C31.4986 24.5018 35.0831 21.0969 38.8606 21.0969C42.638 21.0969 46.2225 24.5018 48.8913 30.3961C51.5394 36.2446 53.1903 44.3592 53.1903 53.3492Z" fill="#FFC069" stroke="black"/>
<path d="M75.435 53.3492C75.435 62.3392 73.784 70.4539 71.1359 76.3023C68.4671 82.1966 64.8826 85.6015 61.1052 85.6015C57.3277 85.6015 53.7433 82.1966 51.0744 76.3023C48.4263 70.4538 46.7754 62.3392 46.7754 53.3492C46.7754 44.3592 48.4263 36.2446 51.0744 30.3961C53.7433 24.5018 57.3277 21.0969 61.1052 21.0969C64.8826 21.0969 68.4671 24.5018 71.1359 30.3961C73.7841 36.2446 75.435 44.3592 75.435 53.3492Z" fill="#FFDFB4" stroke="black"/>
<path d="M97.6796 53.3492C97.6796 62.3392 96.0287 70.4539 93.3806 76.3023C90.7117 82.1966 87.1273 85.6015 83.3498 85.6015C79.5723 85.6015 75.9879 82.1966 73.319 76.3023C70.6709 70.4538 69.02 62.3392 69.02 53.3492C69.02 44.3592 70.6709 36.2446 73.319 30.3961C75.9879 24.5018 79.5723 21.0969 83.3498 21.0969C87.1273 21.0969 90.7117 24.5018 93.3806 30.3961C96.0287 36.2446 97.6796 44.3592 97.6796 53.3492Z" fill="#FFDFB4" stroke="black"/>
<path d="M119.924 53.3492C119.924 62.3392 118.273 70.4539 115.625 76.3023C112.956 82.1966 109.372 85.6015 105.594 85.6015C101.817 85.6015 98.2325 82.1966 95.5637 76.3023C92.9156 70.4538 91.2646 62.3392 91.2646 53.3492C91.2646 44.3592 92.9156 36.2446 95.5637 30.3961C98.2325 24.5018 101.817 21.0969 105.594 21.0969C109.372 21.0969 112.956 24.5018 115.625 30.3961C118.273 36.2446 119.924 44.3592 119.924 53.3492Z" fill="#FFDFB4" stroke="black"/>
<path d="M142.169 53.3492C142.169 62.3392 140.518 70.4539 137.87 76.3023C135.201 82.1966 131.616 85.6015 127.839 85.6015C124.061 85.6015 120.477 82.1966 117.808 76.3023C115.16 70.4538 113.509 62.3392 113.509 53.3492C113.509 44.3592 115.16 36.2446 117.808 30.3961C120.477 24.5018 124.061 21.0969 127.839 21.0969C131.616 21.0969 135.201 24.5018 137.87 30.3961C140.518 36.2446 142.169 44.3592 142.169 53.3492Z" fill="#FFDFB4" stroke="black"/>
<path d="M164.414 53.3492C164.414 62.3392 162.763 70.4539 160.115 76.3023C157.446 82.1966 153.862 85.6015 150.084 85.6015C146.307 85.6015 142.722 82.1966 140.053 76.3023C137.405 70.4538 135.754 62.3392 135.754 53.3492C135.754 44.3592 137.405 36.2446 140.053 30.3961C142.722 24.5018 146.307 21.0969 150.084 21.0969C153.862 21.0969 157.446 24.5018 160.115 30.3961C162.763 36.2446 164.414 44.3592 164.414 53.3492Z" fill="#FFDFB4" stroke="black"/>
<path d="M186.658 53.3492C186.658 62.3392 185.007 70.4539 182.359 76.3023C179.69 82.1966 176.106 85.6015 172.328 85.6015C168.551 85.6015 164.966 82.1966 162.298 76.3023C159.649 70.4538 157.999 62.3392 157.999 53.3492C157.999 44.3592 159.649 36.2446 162.298 30.3961C164.966 24.5018 168.551 21.0969 172.328 21.0969C176.106 21.0969 179.69 24.5018 182.359 30.3961C185.007 36.2446 186.658 44.3592 186.658 53.3492Z" fill="#FFDFB4" stroke="black"/>
<path d="M208.903 53.3492C208.903 62.3392 207.252 70.4539 204.604 76.3023C201.935 82.1966 198.351 85.6015 194.573 85.6015C190.796 85.6015 187.212 82.1966 184.543 76.3023C181.895 70.4538 180.244 62.3392 180.244 53.3492C180.244 44.3592 181.895 36.2446 184.543 30.3961C187.212 24.5018 190.796 21.0969 194.573 21.0969C198.351 21.0969 201.935 24.5018 204.604 30.3961C207.252 36.2446 208.903 44.3592 208.903 53.3492Z" fill="#FFDFB4" stroke="black"/>
<path d="M34.5347 53.5197L203.224 53.5197" stroke="black"/>
<path d="M193.955 48.4282L203.224 53.5192L193.955 58.6103" stroke="black"/>
<rect x="252.813" y="0.5" width="174.074" height="91.6862" rx="23.6738" fill="#EAEAFF" stroke="black"/>
<path d="M296.88 236.805C296.88 245.018 290.098 251.692 281.712 251.692C273.327 251.692 266.545 245.018 266.545 236.805C266.545 228.591 273.327 221.917 281.712 221.917C290.098 221.917 296.88 228.591 296.88 236.805Z" fill="#EAEAFF" stroke="black"/>
<path d="M342.204 236.805C342.204 245.019 335.422 251.693 327.036 251.693C318.651 251.693 311.869 245.019 311.869 236.805C311.869 228.591 318.651 221.917 327.036 221.917C335.422 221.917 342.204 228.591 342.204 236.805Z" fill="#EAEAFF" stroke="black"/>
<path d="M387.527 236.805C387.527 245.019 380.745 251.693 372.36 251.693C363.974 251.693 357.192 245.019 357.192 236.805C357.192 228.591 363.974 221.917 372.36 221.917C380.745 221.917 387.527 228.591 387.527 236.805Z" fill="#EAEAFF" stroke="black"/>
</svg>
