<svg width="450" height="309" viewBox="0 0 450 309" fill="none" xmlns="http://www.w3.org/2000/svg">
<path d="M0.500284 137.731C0.500288 124.505 11.2221 113.784 24.4481 113.784L75.1251 113.784C85.2376 113.784 94.6692 118.88 100.211 127.339C105.938 136.08 115.684 141.346 126.134 141.346L219.729 141.346H237.787C255.96 141.346 270.693 156.079 270.693 174.252L270.693 265.85C270.693 284.64 255.461 299.872 236.671 299.872H34.5229C15.7327 299.872 0.500246 284.64 0.500251 265.85L0.500284 137.731Z" fill="#F2FFE6" stroke="black"/>
<rect x="0.5" y="0.500244" width="88.2534" height="95.119" rx="20.0969" fill="#DAFAC0" stroke="black"/>
<path d="M449.196 93.4888L449.196 93.5013C449.198 93.6555 449.199 93.8099 449.199 93.9648L449.199 270.619C449.199 287.052 438.407 300.187 425.301 300.187L318.562 300.187C305.456 300.187 294.664 287.052 294.664 270.619L294.664 148.497C294.664 134.191 283.067 122.594 268.761 122.594L132.53 122.594C119.425 122.594 108.633 109.458 108.633 93.0251L108.633 30.0687C108.633 13.6357 119.425 0.500002 132.53 0.500005L425.301 0.500062C438.407 0.500065 449.199 13.6357 449.199 30.0688L449.199 93.0252C449.199 93.1801 449.198 93.3346 449.196 93.4888Z" fill="#FFD1CE" stroke="black"/>
<path d="M203.121 276.193C201.187 283.956 190.155 283.956 188.221 276.193L186.183 268.013C184.751 262.265 178.108 259.61 173.108 262.787L166.504 266.983C159.961 271.141 152.081 264.086 155.492 257.125L161.266 245.339C163.591 240.593 161.17 234.888 156.141 233.264L144.387 229.466C137.297 227.175 137.297 217.145 144.387 214.854L156.141 211.056C161.17 209.431 163.591 203.726 161.266 198.981L155.492 187.195C152.081 180.233 159.961 173.179 166.504 177.336L173.108 181.533C178.108 184.71 184.751 182.055 186.183 176.307L188.221 168.126C190.155 160.364 201.187 160.364 203.121 168.126L205.159 176.307C206.591 182.055 213.234 184.71 218.234 181.533L224.838 177.336C231.381 173.179 239.261 180.233 235.85 187.195L230.076 198.981C227.751 203.726 230.172 209.431 235.201 211.056L246.955 214.854C254.045 217.145 254.045 227.175 246.955 229.466L235.201 233.264C230.172 234.889 227.751 240.593 230.076 245.339L235.85 257.125C239.261 264.086 231.381 271.141 224.838 266.983L218.234 262.787C213.234 259.61 206.591 262.265 205.159 268.013L203.121 276.193Z" fill="#B4F481" stroke="black"/>
<rect x="309.454" y="165.992" width="44.2666" height="128.036" rx="22.1333" transform="rotate(-90 309.454 165.992)" fill="#FFA39E" stroke="black"/>
<rect x="370.33" y="113.962" width="44.2666" height="67.1601" rx="22.1333" transform="rotate(-90 370.33 113.962)" fill="#FFA39E" stroke="black"/>
<rect x="336.51" y="61.9312" width="44.2666" height="100.98" rx="22.1333" transform="rotate(-90 336.51 61.9312)" fill="#FFA39E" stroke="black"/>
</svg>
