<svg width="400" height="244" viewBox="0 0 400 244" fill="none" xmlns="http://www.w3.org/2000/svg">
<path d="M0.456299 75.5094L0.456116 75.5221C0.454376 75.6462 0.453522 75.7705 0.453522 75.8951V218.578C0.453522 231.781 10.1968 242.411 22.1292 242.411H118.944C130.877 242.411 140.62 231.781 140.62 218.578L140.62 122.464C140.62 109.488 151.139 98.9691 164.115 98.9691H287.679C299.612 98.9691 309.355 88.3394 309.355 75.1362V24.2864C309.355 11.0831 299.612 0.45339 287.679 0.45339H22.1292C10.1968 0.45339 0.453522 11.0831 0.453522 24.2864V75.1362C0.453522 75.2608 0.454376 75.3852 0.456299 75.5094Z" fill="#E9E9FF" stroke="black" stroke-width="0.907024"/>
<mask id="path-2-inside-1_355_32961" fill="white">
<path fill-rule="evenodd" clip-rule="evenodd" d="M23.5591 136.814C36.8035 136.814 49.0885 147.061 62.2806 148.237C62.9229 148.294 63.5733 148.324 64.2305 148.324C76.2032 148.324 85.9089 138.618 85.9089 126.645C85.9089 114.672 76.2032 104.967 64.2305 104.967C63.5725 104.967 62.9213 104.996 62.2782 105.053C49.0869 106.231 36.8029 116.478 23.5591 116.478C17.9436 116.478 13.3914 121.03 13.3914 126.646C13.3914 132.261 17.9436 136.814 23.5591 136.814Z"/>
</mask>
<path fill-rule="evenodd" clip-rule="evenodd" d="M23.5591 136.814C36.8035 136.814 49.0885 147.061 62.2806 148.237C62.9229 148.294 63.5733 148.324 64.2305 148.324C76.2032 148.324 85.9089 138.618 85.9089 126.645C85.9089 114.672 76.2032 104.967 64.2305 104.967C63.5725 104.967 62.9213 104.996 62.2782 105.053C49.0869 106.231 36.8029 116.478 23.5591 116.478C17.9436 116.478 13.3914 121.03 13.3914 126.646C13.3914 132.261 17.9436 136.814 23.5591 136.814Z" fill="#B5B6FF"/>
<path d="M23.5591 116.478L23.5591 115.571L23.5591 116.478ZM64.2305 147.417C63.6002 147.417 62.9767 147.388 62.3611 147.334L62.2001 149.14C62.8691 149.2 63.5464 149.231 64.2305 149.231L64.2305 147.417ZM85.0019 126.645C85.0019 138.117 75.7022 147.417 64.2305 147.417L64.2305 149.231C76.7041 149.231 86.816 139.119 86.816 126.645L85.0019 126.645ZM64.2305 105.874C75.7022 105.874 85.0019 115.173 85.0019 126.645L86.816 126.645C86.816 114.172 76.7041 104.06 64.2305 104.06L64.2305 105.874ZM62.3589 105.957C62.9752 105.902 63.5994 105.874 64.2305 105.874L64.2305 104.06C63.5455 104.06 62.8675 104.09 62.1976 104.15L62.3589 105.957ZM14.2984 126.646C14.2984 121.531 18.4446 117.385 23.5591 117.385L23.5591 115.571C17.4427 115.571 12.4843 120.529 12.4843 126.646L14.2984 126.646ZM23.5591 135.907C18.4446 135.907 14.2984 131.76 14.2984 126.646L12.4843 126.646C12.4843 132.762 17.4427 137.721 23.5591 137.721L23.5591 135.907ZM62.1976 104.15C55.4284 104.754 48.9131 107.683 42.5836 110.372C36.1887 113.09 29.9699 115.571 23.5591 115.571L23.5591 117.385C30.3922 117.385 36.9372 114.743 43.2931 112.042C49.7144 109.314 55.9368 106.53 62.3589 105.957L62.1976 104.15ZM62.3611 147.334C55.9387 146.761 49.7159 143.978 43.2942 141.25C36.9379 138.549 30.3925 135.907 23.5591 135.907L23.5591 137.721C29.9702 137.721 36.1895 140.202 42.5848 142.919C48.9147 145.608 55.4305 148.537 62.2001 149.14L62.3611 147.334Z" fill="black" mask="url(#path-2-inside-1_355_32961)"/>
<mask id="path-4-inside-2_355_32961" fill="white">
<path fill-rule="evenodd" clip-rule="evenodd" d="M23.5591 217.388C36.8032 217.388 49.0879 227.635 62.2796 228.812C62.9222 228.869 63.5728 228.898 64.2302 228.898C76.2029 228.898 85.9087 219.193 85.9087 207.22C85.9087 195.247 76.2029 185.542 64.2302 185.542C63.5723 185.542 62.9213 185.571 62.2783 185.628C49.0869 186.805 36.8029 197.053 23.5591 197.053C17.9436 197.053 13.3914 201.605 13.3914 207.22C13.3914 212.836 17.9436 217.388 23.5591 217.388Z"/>
</mask>
<path fill-rule="evenodd" clip-rule="evenodd" d="M23.5591 217.388C36.8032 217.388 49.0879 227.635 62.2796 228.812C62.9222 228.869 63.5728 228.898 64.2302 228.898C76.2029 228.898 85.9087 219.193 85.9087 207.22C85.9087 195.247 76.2029 185.542 64.2302 185.542C63.5723 185.542 62.9213 185.571 62.2783 185.628C49.0869 186.805 36.8029 197.053 23.5591 197.053C17.9436 197.053 13.3914 201.605 13.3914 207.22C13.3914 212.836 17.9436 217.388 23.5591 217.388Z" fill="#B5B6FF"/>
<path d="M23.5591 197.053L23.5591 196.146L23.5591 197.053ZM64.2302 227.991C63.5997 227.991 62.976 227.963 62.3602 227.908L62.199 229.715C62.8683 229.775 63.5459 229.805 64.2302 229.805L64.2302 227.991ZM85.0017 207.22C85.0017 218.692 75.702 227.991 64.2302 227.991L64.2302 229.805C76.7039 229.805 86.8157 219.694 86.8157 207.22L85.0017 207.22ZM64.2302 186.449C75.702 186.449 85.0017 195.748 85.0017 207.22L86.8157 207.22C86.8157 194.746 76.7039 184.634 64.2302 184.634L64.2302 186.449ZM62.3589 186.532C62.9751 186.477 63.5993 186.449 64.2302 186.449L64.2302 184.634C63.5454 184.634 62.8674 184.665 62.1976 184.725L62.3589 186.532ZM14.2984 207.22C14.2984 202.106 18.4446 197.96 23.5591 197.96L23.5591 196.146C17.4427 196.146 12.4843 201.104 12.4843 207.22L14.2984 207.22ZM23.5591 216.481C18.4446 216.481 14.2984 212.335 14.2984 207.22L12.4843 207.22C12.4843 213.337 17.4427 218.295 23.5591 218.295L23.5591 216.481ZM62.1976 184.725C55.4284 185.329 48.9131 188.258 42.5836 190.947C36.1887 193.664 29.9699 196.146 23.5591 196.146L23.5591 197.96C30.3922 197.96 36.9372 195.317 43.2931 192.617C49.7144 189.888 55.9368 187.105 62.3589 186.532L62.1976 184.725ZM62.3602 227.908C55.9379 227.336 49.7153 224.552 43.2937 221.824C36.9376 219.123 30.3923 216.481 23.5591 216.481L23.5591 218.295C29.9701 218.295 36.1892 220.776 42.5843 223.494C48.914 226.183 55.4296 229.112 62.199 229.715L62.3602 227.908Z" fill="black" mask="url(#path-4-inside-2_355_32961)"/>
<mask id="path-6-inside-3_355_32961" fill="white">
<path fill-rule="evenodd" clip-rule="evenodd" d="M75.7402 157.15C62.4968 157.15 50.2132 146.903 37.0223 145.725C36.379 145.668 35.7277 145.638 35.0696 145.638C23.0969 145.638 13.3911 155.344 13.3911 167.317C13.3911 179.289 23.0969 188.995 35.0696 188.995C35.7271 188.995 36.3777 188.966 37.0203 188.909C50.2119 187.732 62.4963 177.485 75.7402 177.485C81.3558 177.485 85.908 172.933 85.908 167.317C85.908 161.702 81.3557 157.15 75.7402 157.15Z"/>
</mask>
<path fill-rule="evenodd" clip-rule="evenodd" d="M75.7402 157.15C62.4968 157.15 50.2132 146.903 37.0223 145.725C36.379 145.668 35.7277 145.638 35.0696 145.638C23.0969 145.638 13.3911 155.344 13.3911 167.317C13.3911 179.289 23.0969 188.995 35.0696 188.995C35.7271 188.995 36.3777 188.966 37.0203 188.909C50.2119 187.732 62.4963 177.485 75.7402 177.485C81.3558 177.485 85.908 172.933 85.908 167.317C85.908 161.702 81.3557 157.15 75.7402 157.15Z" fill="#B5B6FF"/>
<path d="M75.7402 157.15L75.7402 158.057L75.7402 157.15ZM35.0696 146.545C35.7008 146.545 36.3252 146.573 36.9416 146.628L37.1029 144.822C36.4329 144.762 35.7547 144.731 35.0696 144.731L35.0696 146.545ZM14.2981 167.317C14.2981 155.845 23.5978 146.545 35.0696 146.545L35.0696 144.731C22.596 144.731 12.4841 154.843 12.4841 167.317L14.2981 167.317ZM35.0696 188.088C23.5978 188.088 14.2981 178.788 14.2981 167.317L12.4841 167.317C12.4841 179.79 22.5959 189.902 35.0696 189.902L35.0696 188.088ZM36.9397 188.005C36.3239 188.06 35.7001 188.088 35.0696 188.088L35.0696 189.902C35.754 189.902 36.4315 189.872 37.1009 189.812L36.9397 188.005ZM85.001 167.317C85.001 172.432 80.8548 176.578 75.7402 176.578L75.7402 178.392C81.8567 178.392 86.815 173.434 86.815 167.317L85.001 167.317ZM75.7402 158.057C80.8548 158.057 85.001 162.203 85.001 167.317L86.815 167.317C86.815 161.201 81.8567 156.242 75.7402 156.242L75.7402 158.057ZM37.1009 189.812C43.8702 189.208 50.3857 186.28 56.7153 183.59C63.1104 180.873 69.3294 178.392 75.7402 178.392L75.7402 176.578C68.9071 176.578 62.362 179.22 56.006 181.921C49.5845 184.649 43.3619 187.432 36.9397 188.005L37.1009 189.812ZM36.9416 146.628C43.3636 147.202 49.5857 149.985 56.0069 152.714C62.3626 155.414 68.9074 158.057 75.7402 158.057L75.7402 156.242C69.3297 156.242 63.111 153.761 56.7163 151.044C50.3871 148.355 43.8719 145.426 37.1029 144.822L36.9416 146.628Z" fill="black" mask="url(#path-6-inside-3_355_32961)"/>
<circle cx="64.7143" cy="126.646" r="10.932" transform="rotate(90 64.7143 126.646)" fill="#EAEAFF" stroke="black" stroke-width="0.907024"/>
<path d="M35.8123 178.216C29.878 178.216 25.0554 173.328 25.0554 167.284C25.0554 161.239 29.878 156.352 35.8123 156.352C41.7466 156.352 46.5692 161.239 46.5692 167.284C46.5692 173.328 41.7466 178.216 35.8123 178.216Z" fill="#EAEAFF" stroke="black" stroke-width="0.907024"/>
<circle cx="64.7143" cy="207.921" r="10.932" transform="rotate(90 64.7143 207.921)" fill="#EAEAFF" stroke="black" stroke-width="0.907024"/>
<rect x="155.229" y="111.638" width="148.805" height="131.68" rx="28.7948" fill="#FFDFB4" stroke="black" stroke-width="0.907024"/>
<rect x="180.138" y="175.468" width="63.1801" height="50.7255" rx="9.79447" fill="#FFC069" stroke="black" stroke-width="0.907024"/>
<rect x="324.273" y="0.45339" width="75.2455" height="241.958" rx="37.6228" fill="#DAFAC0" stroke="black" stroke-width="0.907024"/>
<path d="M365.933 20.9933L365.935 20.9944L385.154 34.9159C385.155 34.9162 385.155 34.9166 385.156 34.9169C387.585 36.7016 387.882 40.2315 385.687 42.3843L385.687 42.3843L385.682 42.3892C383.605 44.4894 380.047 44.1065 378.308 41.6385L378.307 41.6374L367.809 26.8327C367.809 26.832 367.808 26.8313 367.808 26.8306C367.525 26.4222 367.169 26.065 366.831 25.7614L366.074 25.0812V26.0987V67.332C366.074 69.1074 364.638 70.5532 362.894 70.5532C361.151 70.5532 359.714 69.1074 359.714 67.332V26.1023V25.0848L358.957 25.7651C358.62 26.0687 358.264 26.4259 357.981 26.8342C357.98 26.835 357.98 26.8357 357.979 26.8364L347.481 41.641L347.48 41.6422C345.744 44.1079 342.221 44.4955 340.106 42.3916C337.976 40.2367 338.279 36.7056 340.704 34.9588L340.705 34.9577L359.927 20.994L359.928 20.9933C361.731 19.6766 364.131 19.6766 365.933 20.9933Z" fill="#F2FFE6" stroke="black" stroke-width="0.907024"/>
</svg>
