<svg width="423" height="336" viewBox="0 0 423 336" fill="none" xmlns="http://www.w3.org/2000/svg">
<path d="M1 314.045V25.2261C1 13.4233 10.568 3.85526 22.3709 3.85526H171.334C183.137 3.85526 192.705 13.4233 192.705 25.2262V94.7049C192.705 106.508 202.273 116.076 214.076 116.076H400.629C412.432 116.076 422 125.644 422 137.447V314.045C422 325.848 412.432 335.416 400.629 335.416H22.3709C10.5681 335.416 1 325.848 1 314.045Z" fill="#E0FFC8" stroke="black"/>
<rect x="214.355" y="4.35526" width="207.145" height="89.6009" rx="20.8709" fill="#EAEAFF" stroke="black"/>
<path d="M354.33 62.5736L354.631 62.0174C356.616 58.3386 354.704 53.7651 350.693 52.5887C345.344 51.0196 345.344 43.4365 350.693 41.8675C354.704 40.691 356.616 36.1176 354.631 32.4388L354.33 31.8826C351.75 27.1013 357.068 21.937 361.778 24.6538C365.399 26.7432 370.021 24.8469 371.128 20.8141C372.577 15.5341 380.065 15.5341 381.514 20.8142C382.621 24.8469 387.243 26.7432 390.864 24.6538C395.574 21.937 400.892 27.1013 398.312 31.8826L398.011 32.4388C396.026 36.1176 397.938 40.691 401.949 41.8675C407.298 43.4365 407.298 51.0196 401.949 52.5887C397.938 53.7651 396.026 58.3386 398.011 62.0174L398.312 62.5736C400.892 67.3549 395.574 72.5192 390.864 69.8024C387.243 67.713 382.621 69.6092 381.514 73.642C380.065 78.922 372.577 78.922 371.128 73.642C370.021 69.6092 365.399 67.713 361.778 69.8024C357.068 72.5192 351.75 67.3549 354.33 62.5736Z" fill="#FF7E35" stroke="black"/>
<rect x="35.406" y="35.198" width="126.148" height="275.622" rx="20.8709" fill="#B4F481" stroke="black"/>
<rect x="231.25" y="142.148" width="148.868" height="169.672" rx="21.8709" fill="#F2FFE6" stroke="black"/>
<path d="M103.215 246.54L103.216 246.542L107.966 275.265C107.966 275.266 107.967 275.266 107.967 275.267C108.551 278.947 105.83 282.251 102.129 282.177L102.129 282.177L102.121 282.177C98.5509 282.163 95.8096 278.686 96.3967 275.024L96.3969 275.023L99.8319 253.162C99.832 253.161 99.8322 253.16 99.8323 253.159C99.9319 252.567 99.9274 251.954 99.8934 251.401L99.8247 250.283L99.0507 251.075L64.5208 286.411C63.0239 287.943 60.5561 287.937 59.0401 286.386C57.5242 284.835 57.5183 282.309 59.0152 280.777L93.542 245.444L94.316 244.652L93.2236 244.581C92.6826 244.547 92.0838 244.542 91.5049 244.644L70.1408 248.159L70.1393 248.16C66.5636 248.76 63.1936 245.989 63.1495 242.3C63.1359 238.568 66.3691 235.787 69.9307 236.414L69.9327 236.414L98.0372 241.242L98.0384 241.242C100.705 241.693 102.775 243.811 103.215 246.54Z" fill="#F2FFE6" stroke="black"/>
</svg>
