<svg width="1128" height="467" viewBox="0 0 1128 467" fill="none" xmlns="http://www.w3.org/2000/svg">
<path d="M0.000297213 30.0001C0.000306951 13.4315 13.4317 9.09696e-05 30.0003 9.02502e-05L191.588 8.32348e-05C210.883 8.23971e-05 226.525 15.6418 226.525 34.9368V34.9368C226.525 54.2319 242.166 69.8736 261.461 69.8736L413.611 69.8736L439.638 69.8736L1098 69.8736C1114.57 69.8736 1128 83.305 1128 99.8736L1128 437C1128 453.568 1114.57 467 1098 467L30.0001 467C13.4315 467 4.82553e-05 453.569 5.79936e-05 437L0.000297213 30.0001Z" fill="#F8F6F4"/>
</svg>
