<svg width="375" height="205" viewBox="0 0 375 205" fill="none" xmlns="http://www.w3.org/2000/svg">
<rect x="298.502" y="0.544217" width="179.806" height="103.485" rx="26.1853" fill="#FEBDAF" stroke="black" stroke-width="0.588434"/>
<path d="M251.888 102.337L251.914 102.333H251.941H260.68C271.661 102.333 280.568 93.3027 280.568 82.1522V20.7285C280.568 9.57797 271.661 0.548123 260.68 0.548123H143.622C132.641 0.548123 123.734 9.57797 123.734 20.7285V22.2041V22.2474L123.722 22.2888C123.32 23.6256 123.111 25.0047 123.111 26.415V81.3964C123.111 86.5507 120.425 91.2767 115.954 95.0336C111.483 98.7901 105.213 101.593 97.989 102.916L97.9627 102.921H97.936H-13.8002C-24.7814 102.921 -33.6884 111.951 -33.6884 123.101V184.525C-33.6884 195.676 -24.7814 204.705 -13.8002 204.705H103.257C114.239 204.705 123.146 195.676 123.146 184.525V123.101C123.146 122.597 123.126 122.1 123.091 121.602L123.088 121.551L123.101 121.502C124.576 116.251 128.869 111.668 134.879 108.403C140.893 105.136 148.654 103.172 157.123 103.172H242.543C245.786 103.172 248.918 102.882 251.888 102.337Z" fill="#B5B6FF" stroke="black" stroke-width="0.588434"/>
<path d="M-183.704 63.9126L-183.704 63.9216C-183.706 64.0265 -183.706 64.1316 -183.706 64.237V184.525C-183.706 195.671 -174.675 204.705 -163.535 204.705H-73.9993C-62.8591 204.705 -53.8281 195.671 -53.8281 184.525L-53.8281 103.49C-53.8281 92.6031 -45.0025 83.7775 -34.1156 83.7775H82.0493C93.1894 83.7775 102.22 74.7425 102.22 63.5971V20.7285C102.22 9.58305 93.1894 0.548123 82.0493 0.548123H-163.535C-174.675 0.548123 -183.706 9.58305 -183.706 20.7285V63.5971C-183.706 63.6525 -183.706 63.7078 -183.706 63.763C-183.705 63.813 -183.705 63.8628 -183.704 63.9126Z" fill="#FF7E35" stroke="black" stroke-width="0.588434"/>
<path d="M141.663 139.886C141.663 125.756 153.118 114.301 167.248 114.301L393.609 114.301C407.739 114.301 419.193 125.756 419.193 139.886L419.193 178.914C419.193 193.044 407.739 204.499 393.609 204.499L167.248 204.499C153.118 204.499 141.663 193.044 141.663 178.914L141.663 139.886Z" fill="#FFC069" stroke="black" stroke-width="0.867282"/>
<mask id="path-5-inside-1_349_33920" fill="white">
<path fill-rule="evenodd" clip-rule="evenodd" d="M329.085 41.6371C329.085 44.8431 327.24 47.7011 324.748 49.719C318.61 54.6911 314.686 62.2896 314.686 70.8047C314.686 85.783 326.828 97.9253 341.806 97.9253C356.784 97.9253 368.927 85.783 368.927 70.8047C368.927 62.2892 365.002 54.6903 358.863 49.7181C356.371 47.7002 354.526 44.8421 354.526 41.6359L354.526 19.9078C354.526 12.8826 348.831 7.18753 341.805 7.18752C334.78 7.18752 329.085 12.8826 329.085 19.9078L329.085 41.6371Z"/>
</mask>
<path fill-rule="evenodd" clip-rule="evenodd" d="M329.085 41.6371C329.085 44.8431 327.24 47.7011 324.748 49.719C318.61 54.6911 314.686 62.2896 314.686 70.8047C314.686 85.783 326.828 97.9253 341.806 97.9253C356.784 97.9253 368.927 85.783 368.927 70.8047C368.927 62.2892 365.002 54.6903 358.863 49.7181C356.371 47.7002 354.526 44.8421 354.526 41.6359L354.526 19.9078C354.526 12.8826 348.831 7.18753 341.805 7.18752C334.78 7.18752 329.085 12.8826 329.085 19.9078L329.085 41.6371Z" fill="#FFD1CE"/>
<path d="M329.085 19.9078L328.218 19.9078L329.085 19.9078ZM358.863 49.7181L359.409 49.0442L358.863 49.7181ZM329.085 41.6371L328.218 41.6371L329.085 41.6371ZM315.553 70.8047C315.553 62.5623 319.35 55.2075 325.294 50.3929L324.202 49.0451C317.869 54.1748 313.818 62.017 313.818 70.8047L315.553 70.8047ZM341.806 97.058C327.307 97.058 315.553 85.304 315.553 70.8047L313.818 70.8047C313.818 86.262 326.349 98.7926 341.806 98.7926L341.806 97.058ZM368.059 70.8047C368.059 85.304 356.305 97.058 341.806 97.058L341.806 98.7926C357.263 98.7926 369.794 86.262 369.794 70.8047L368.059 70.8047ZM358.317 50.3921C364.262 55.2066 368.059 62.5618 368.059 70.8047L369.794 70.8047C369.794 62.0165 365.743 54.1739 359.409 49.0442L358.317 50.3921ZM353.658 19.9078L353.658 41.6359L355.393 41.6359L355.393 19.9078L353.658 19.9078ZM341.805 8.05481C348.352 8.05481 353.658 13.3616 353.658 19.9078L355.393 19.9078C355.393 12.4036 349.31 6.32025 341.805 6.32024L341.805 8.05481ZM329.952 19.9078C329.952 13.3616 335.259 8.05481 341.805 8.05481L341.805 6.32024C334.301 6.32024 328.218 12.4036 328.218 19.9078L329.952 19.9078ZM329.952 41.6371L329.952 19.9078L328.218 19.9078L328.218 41.6371L329.952 41.6371ZM359.409 49.0442C357.046 47.131 355.393 44.4981 355.393 41.6359L353.658 41.6359C353.658 45.1861 355.696 48.2695 358.317 50.3921L359.409 49.0442ZM325.294 50.3929C327.915 48.2703 329.952 45.187 329.952 41.6371L328.218 41.6371C328.218 44.4991 326.565 47.1319 324.202 49.0451L325.294 50.3929Z" fill="black" mask="url(#path-5-inside-1_349_33920)"/>
<circle cx="340.93" cy="71.4027" r="13.8101" transform="rotate(-180 340.93 71.4027)" fill="white" stroke="black" stroke-width="0.867282"/>
<path d="M193.394 181.943C192.068 186.618 185.442 186.618 184.116 181.943C183.163 178.584 179.324 176.994 176.274 178.695C172.031 181.063 167.346 176.378 169.714 172.135C171.415 169.085 169.825 165.246 166.466 164.293C161.791 162.967 161.791 156.341 166.466 155.015C169.825 154.061 171.415 150.223 169.714 147.173C167.346 142.93 172.031 138.244 176.274 140.612C179.324 142.314 183.163 140.724 184.116 137.364C185.442 132.689 192.068 132.689 193.394 137.364C194.348 140.724 198.187 142.314 201.236 140.612C205.479 138.244 210.165 142.93 207.797 147.173C206.095 150.223 207.685 154.061 211.045 155.015C215.72 156.341 215.72 162.967 211.045 164.293C207.685 165.246 206.095 169.085 207.797 172.135C210.165 176.378 205.479 181.063 201.236 178.695C198.187 176.994 194.348 178.584 193.394 181.943Z" fill="white" stroke="black" stroke-width="0.588434"/>
<path d="M30.4974 156.219H53.8262C58.8439 156.219 62.9146 160.284 62.9146 165.307V188.642C62.9146 193.66 58.8495 197.731 53.8262 197.731H30.4916C25.4739 197.731 21.4031 193.665 21.4031 188.642V165.307C21.4031 159.982 17.0881 155.66 11.7561 155.66H-11.5844C-16.6021 155.66 -20.6729 151.595 -20.6729 146.572V123.232C-20.6729 118.214 -16.602 114.143 -11.5844 114.143H11.7619C16.7796 114.143 20.8504 118.208 20.8504 123.232V146.572C20.8504 151.898 25.1654 156.219 30.4974 156.219Z" fill="white" stroke="black" stroke-width="0.558573"/>
</svg>
