<svg width="780" height="215" viewBox="0 0 780 215" fill="none" xmlns="http://www.w3.org/2000/svg">
<path d="M3.73721e-06 26.9079C1.67321e-06 12.0471 12.0471 -9.30179e-07 26.908 -2.07761e-06L219.147 -1.69207e-05C229.223 -1.76987e-05 237.391 8.16821 237.391 18.2442V18.2442C237.391 28.3202 245.56 36.4885 255.636 36.4885L557.697 36.4884L595.325 36.4884L750 36.4884C766.569 36.4884 780 49.9199 780 66.4884L780 185C780 201.569 766.569 215 750 215L30 215C13.4315 215 2.79956e-05 201.569 2.56944e-05 185L3.73721e-06 26.9079Z" fill="#EAEAFF"/>
</svg>
